<mxfile host="app.diagrams.net" modified="2024-03-17T16:18:09.750Z" agent="Mozilla/5.0 (X11; Linux x86_64; rv:123.0) Gecko/20100101 Firefox/123.0" etag="5oisiJXQTVS7P1dQp3bP" version="24.0.7" type="device">
  <diagram name="Page-1" id="13e1069c-82ec-6db2-03f1-153e76fe0fe0">
    <mxGraphModel dx="961" dy="501" grid="1" gridSize="10" guides="1" tooltips="1" connect="1" arrows="1" fold="1" page="1" pageScale="1" pageWidth="1100" pageHeight="850" background="none" math="0" shadow="0">
      <root>
        <mxCell id="0" />
        <mxCell id="1" parent="0" />
        <mxCell id="7baba1c4bc27f4b0-2" value=":Pre-kernel" style="shape=umlLifeline;perimeter=lifelinePerimeter;whiteSpace=wrap;html=1;container=1;collapsible=0;recursiveResize=0;outlineConnect=0;rounded=1;shadow=0;comic=0;labelBackgroundColor=none;strokeWidth=1;fontFamily=Verdana;fontSize=12;align=center;" parent="1" vertex="1">
          <mxGeometry x="240" y="80" width="100" height="540" as="geometry" />
        </mxCell>
        <mxCell id="iphER6Wwh1mzffonGMlg-1" value="" style="html=1;points=[];perimeter=orthogonalPerimeter;rounded=0;shadow=0;comic=0;labelBackgroundColor=none;strokeWidth=1;fontFamily=Verdana;fontSize=12;align=center;" vertex="1" parent="7baba1c4bc27f4b0-2">
          <mxGeometry x="45" y="100" width="10" height="400" as="geometry" />
        </mxCell>
        <mxCell id="iphER6Wwh1mzffonGMlg-5" value="" style="rounded=0;whiteSpace=wrap;html=1;" vertex="1" parent="7baba1c4bc27f4b0-2">
          <mxGeometry x="55" y="150" width="10" height="20" as="geometry" />
        </mxCell>
        <mxCell id="iphER6Wwh1mzffonGMlg-10" value="" style="rounded=0;whiteSpace=wrap;html=1;" vertex="1" parent="7baba1c4bc27f4b0-2">
          <mxGeometry x="55" y="290" width="10" height="20" as="geometry" />
        </mxCell>
        <mxCell id="iphER6Wwh1mzffonGMlg-11" style="edgeStyle=orthogonalEdgeStyle;rounded=0;orthogonalLoop=1;jettySize=auto;html=1;entryX=1.272;entryY=0.122;entryDx=0;entryDy=0;entryPerimeter=0;exitX=1.18;exitY=0.002;exitDx=0;exitDy=0;exitPerimeter=0;" edge="1" parent="7baba1c4bc27f4b0-2">
          <mxGeometry relative="1" as="geometry">
            <mxPoint x="56.799999999999955" y="240" as="sourcePoint" />
            <mxPoint x="67.72000000000003" y="291.55999999999995" as="targetPoint" />
            <Array as="points">
              <mxPoint x="55" y="240.12" />
              <mxPoint x="55" y="269.12" />
              <mxPoint x="90" y="269.12" />
              <mxPoint x="90" y="291.12" />
            </Array>
          </mxGeometry>
        </mxCell>
        <mxCell id="iphER6Wwh1mzffonGMlg-12" value="setup_paging()" style="edgeLabel;html=1;align=center;verticalAlign=middle;resizable=0;points=[];" vertex="1" connectable="0" parent="iphER6Wwh1mzffonGMlg-11">
          <mxGeometry x="0.2901" y="1" relative="1" as="geometry">
            <mxPoint x="9" y="-14" as="offset" />
          </mxGeometry>
        </mxCell>
        <mxCell id="iphER6Wwh1mzffonGMlg-13" value="" style="rounded=0;whiteSpace=wrap;html=1;" vertex="1" parent="7baba1c4bc27f4b0-2">
          <mxGeometry x="55" y="360" width="10" height="20" as="geometry" />
        </mxCell>
        <mxCell id="iphER6Wwh1mzffonGMlg-14" style="edgeStyle=orthogonalEdgeStyle;rounded=0;orthogonalLoop=1;jettySize=auto;html=1;entryX=1.272;entryY=0.122;entryDx=0;entryDy=0;entryPerimeter=0;exitX=1.18;exitY=0.002;exitDx=0;exitDy=0;exitPerimeter=0;" edge="1" parent="7baba1c4bc27f4b0-2">
          <mxGeometry relative="1" as="geometry">
            <mxPoint x="56.799999999999955" y="310" as="sourcePoint" />
            <mxPoint x="67.72000000000003" y="361.55999999999995" as="targetPoint" />
            <Array as="points">
              <mxPoint x="55" y="310.12" />
              <mxPoint x="55" y="339.12" />
              <mxPoint x="90" y="339.12" />
              <mxPoint x="90" y="361.12" />
            </Array>
          </mxGeometry>
        </mxCell>
        <mxCell id="iphER6Wwh1mzffonGMlg-15" value="map_kernel()" style="edgeLabel;html=1;align=center;verticalAlign=middle;resizable=0;points=[];" vertex="1" connectable="0" parent="iphER6Wwh1mzffonGMlg-14">
          <mxGeometry x="0.2901" y="1" relative="1" as="geometry">
            <mxPoint x="9" y="-14" as="offset" />
          </mxGeometry>
        </mxCell>
        <mxCell id="iphER6Wwh1mzffonGMlg-16" value="" style="rounded=0;whiteSpace=wrap;html=1;" vertex="1" parent="7baba1c4bc27f4b0-2">
          <mxGeometry x="55" y="430" width="10" height="20" as="geometry" />
        </mxCell>
        <mxCell id="iphER6Wwh1mzffonGMlg-17" style="edgeStyle=orthogonalEdgeStyle;rounded=0;orthogonalLoop=1;jettySize=auto;html=1;entryX=1.272;entryY=0.122;entryDx=0;entryDy=0;entryPerimeter=0;exitX=1.18;exitY=0.002;exitDx=0;exitDy=0;exitPerimeter=0;" edge="1" parent="7baba1c4bc27f4b0-2">
          <mxGeometry relative="1" as="geometry">
            <mxPoint x="56.799999999999955" y="380" as="sourcePoint" />
            <mxPoint x="67.72000000000003" y="431.55999999999995" as="targetPoint" />
            <Array as="points">
              <mxPoint x="55" y="380.12" />
              <mxPoint x="55" y="409.12" />
              <mxPoint x="90" y="409.12" />
              <mxPoint x="90" y="431.12" />
            </Array>
          </mxGeometry>
        </mxCell>
        <mxCell id="iphER6Wwh1mzffonGMlg-18" value="enable_long_mode()" style="edgeLabel;html=1;align=center;verticalAlign=middle;resizable=0;points=[];" vertex="1" connectable="0" parent="iphER6Wwh1mzffonGMlg-17">
          <mxGeometry x="0.2901" y="1" relative="1" as="geometry">
            <mxPoint x="19" y="-14" as="offset" />
          </mxGeometry>
        </mxCell>
        <mxCell id="7baba1c4bc27f4b0-8" value=":boot.s" style="shape=umlLifeline;perimeter=lifelinePerimeter;whiteSpace=wrap;html=1;container=1;collapsible=0;recursiveResize=0;outlineConnect=0;rounded=1;shadow=0;comic=0;labelBackgroundColor=none;strokeWidth=1;fontFamily=Verdana;fontSize=12;align=center;" parent="1" vertex="1">
          <mxGeometry x="100" y="80" width="100" height="530" as="geometry" />
        </mxCell>
        <mxCell id="7baba1c4bc27f4b0-9" value="" style="html=1;points=[];perimeter=orthogonalPerimeter;rounded=0;shadow=0;comic=0;labelBackgroundColor=none;strokeWidth=1;fontFamily=Verdana;fontSize=12;align=center;" parent="7baba1c4bc27f4b0-8" vertex="1">
          <mxGeometry x="45" y="100" width="10" height="400" as="geometry" />
        </mxCell>
        <mxCell id="iphER6Wwh1mzffonGMlg-19" value="" style="shape=umlDestroy;html=1;" vertex="1" parent="7baba1c4bc27f4b0-8">
          <mxGeometry x="35" y="520" width="30" height="30" as="geometry" />
        </mxCell>
        <mxCell id="7baba1c4bc27f4b0-11" value="main()" style="html=1;verticalAlign=bottom;endArrow=block;entryX=0;entryY=0;labelBackgroundColor=none;fontFamily=Verdana;fontSize=12;edgeStyle=elbowEdgeStyle;elbow=vertical;" parent="1" source="7baba1c4bc27f4b0-9" edge="1">
          <mxGeometry relative="1" as="geometry">
            <mxPoint x="220" y="190" as="sourcePoint" />
            <mxPoint x="285" y="180" as="targetPoint" />
          </mxGeometry>
        </mxCell>
        <mxCell id="iphER6Wwh1mzffonGMlg-2" value=":Kernel" style="shape=umlLifeline;perimeter=lifelinePerimeter;whiteSpace=wrap;html=1;container=1;collapsible=0;recursiveResize=0;outlineConnect=0;rounded=1;shadow=0;comic=0;labelBackgroundColor=none;strokeWidth=1;fontFamily=Verdana;fontSize=12;align=center;" vertex="1" parent="1">
          <mxGeometry x="380" y="80" width="100" height="580" as="geometry" />
        </mxCell>
        <mxCell id="iphER6Wwh1mzffonGMlg-3" value="" style="html=1;points=[];perimeter=orthogonalPerimeter;rounded=0;shadow=0;comic=0;labelBackgroundColor=none;strokeWidth=1;fontFamily=Verdana;fontSize=12;align=center;" vertex="1" parent="iphER6Wwh1mzffonGMlg-2">
          <mxGeometry x="45" y="500" width="10" height="65" as="geometry" />
        </mxCell>
        <mxCell id="iphER6Wwh1mzffonGMlg-21" value="kernel_main(bootinfo)" style="html=1;verticalAlign=bottom;endArrow=block;labelBackgroundColor=none;fontFamily=Verdana;fontSize=12;edgeStyle=elbowEdgeStyle;elbow=vertical;" edge="1" parent="iphER6Wwh1mzffonGMlg-2" target="iphER6Wwh1mzffonGMlg-2">
          <mxGeometry relative="1" as="geometry">
            <mxPoint x="-85" y="499.3299999999999" as="sourcePoint" />
            <mxPoint x="30" y="499" as="targetPoint" />
          </mxGeometry>
        </mxCell>
        <mxCell id="iphER6Wwh1mzffonGMlg-4" style="edgeStyle=orthogonalEdgeStyle;rounded=0;orthogonalLoop=1;jettySize=auto;html=1;entryX=1.272;entryY=0.122;entryDx=0;entryDy=0;entryPerimeter=0;exitX=1.18;exitY=0.002;exitDx=0;exitDy=0;exitPerimeter=0;" edge="1" parent="1">
          <mxGeometry relative="1" as="geometry">
            <mxPoint x="296.79999999999995" y="180" as="sourcePoint" />
            <mxPoint x="307.72" y="231.55999999999995" as="targetPoint" />
            <Array as="points">
              <mxPoint x="295" y="180.12" />
              <mxPoint x="295" y="209.12" />
              <mxPoint x="330" y="209.12" />
              <mxPoint x="330" y="231.12" />
            </Array>
          </mxGeometry>
        </mxCell>
        <mxCell id="iphER6Wwh1mzffonGMlg-6" value="setup_boot_info()" style="edgeLabel;html=1;align=center;verticalAlign=middle;resizable=0;points=[];" vertex="1" connectable="0" parent="iphER6Wwh1mzffonGMlg-4">
          <mxGeometry x="0.2901" y="1" relative="1" as="geometry">
            <mxPoint x="9" y="-14" as="offset" />
          </mxGeometry>
        </mxCell>
        <mxCell id="iphER6Wwh1mzffonGMlg-7" value="" style="rounded=0;whiteSpace=wrap;html=1;" vertex="1" parent="1">
          <mxGeometry x="295" y="300" width="10" height="20" as="geometry" />
        </mxCell>
        <mxCell id="iphER6Wwh1mzffonGMlg-8" style="edgeStyle=orthogonalEdgeStyle;rounded=0;orthogonalLoop=1;jettySize=auto;html=1;entryX=1.272;entryY=0.122;entryDx=0;entryDy=0;entryPerimeter=0;exitX=1.18;exitY=0.002;exitDx=0;exitDy=0;exitPerimeter=0;" edge="1" parent="1">
          <mxGeometry relative="1" as="geometry">
            <mxPoint x="296.79999999999995" y="250" as="sourcePoint" />
            <mxPoint x="307.72" y="301.55999999999995" as="targetPoint" />
            <Array as="points">
              <mxPoint x="295" y="250.12" />
              <mxPoint x="295" y="279.12" />
              <mxPoint x="330" y="279.12" />
              <mxPoint x="330" y="301.12" />
            </Array>
          </mxGeometry>
        </mxCell>
        <mxCell id="iphER6Wwh1mzffonGMlg-9" value="setup_gdt_table" style="edgeLabel;html=1;align=center;verticalAlign=middle;resizable=0;points=[];" vertex="1" connectable="0" parent="iphER6Wwh1mzffonGMlg-8">
          <mxGeometry x="0.2901" y="1" relative="1" as="geometry">
            <mxPoint x="9" y="-14" as="offset" />
          </mxGeometry>
        </mxCell>
        <mxCell id="iphER6Wwh1mzffonGMlg-20" value="" style="shape=umlDestroy;html=1;" vertex="1" parent="1">
          <mxGeometry x="275" y="600" width="30" height="30" as="geometry" />
        </mxCell>
      </root>
    </mxGraphModel>
  </diagram>
</mxfile>
